<?xml version="1.0" encoding="UTF-8"?>
<svg width="34px" height="32px" viewBox="0 0 34 32" version="1.1" xmlns="http://www.w3.org/2000/svg"
    xmlns:xlink="http://www.w3.org/1999/xlink">
    <title>编组 5</title>
    <g id="页面-1" stroke="none" stroke-width="1" fill="none" fill-rule="evenodd">
        <g id="导演" transform="translate(-500.000000, -90.000000)">
            <g id="编组-33" transform="translate(480.000000, 70.000000)">
                <g id="编组-5" transform="translate(20.000000, 20.000000)">
                    <rect id="矩形" fill="#DD8546" x="0" y="0" width="33.0958904" height="32" rx="13"></rect>
                    <g id="商品" transform="translate(8.000000, 7.000000)" fill="#FFFFFF" fill-rule="nonzero">
                        <path
                            d="M16.9897223,16.3301532 L15.6974895,3.84584484 C15.6320886,3.2041175 15.0479903,2.68892794 14.3984911,2.68892794 L12.1252439,2.68892794 C11.6516507,1.13206126 10.2083191,0 8.50112848,0 C6.79393784,0 5.34835106,1.13206126 4.87701309,2.68892794 L2.60151064,2.68892794 C1.95201143,2.68892794 1.36791318,3.2041175 1.30251222,3.84584484 L0.0102794167,16.3301532 C-0.0844392183,17.2407733 0.486127797,18 1.27996017,18 L15.7155312,18 C16.513874,17.9977404 17.084441,17.2385137 16.9897223,16.3301532 Z M8.50112848,1.5003766 C9.36261702,1.5003766 10.1113453,1.98167211 10.4947302,2.68892794 L6.50752673,2.68892794 C6.89091168,1.98167211 7.63963994,1.5003766 8.50112848,1.5003766 Z M5.61446532,9.33216169 C4.95369008,9.33216169 4.41920635,8.7966357 4.41920635,8.13457193 C4.41920635,7.47250816 4.95369008,6.93698217 5.61446532,6.93698217 C6.27524056,6.93698217 6.80972428,7.47250816 6.80972428,8.13457193 C6.80972428,8.7966357 6.27524056,9.33216169 5.61446532,9.33216169 Z M11.3877916,9.33216169 C10.7270164,9.33216169 10.1925327,8.7966357 10.1925327,8.13457193 C10.1925327,7.47250816 10.7270164,6.93698217 11.3877916,6.93698217 C12.0485669,6.93698217 12.5830506,7.47250816 12.5830506,8.13457193 C12.5830506,8.7966357 12.0485669,9.33216169 11.3877916,9.33216169 Z"
                            id="形状"></path>
                    </g>
                </g>
            </g>
        </g>
    </g>
</svg>